# xmcd
#
# Track frame offsets: 
#        150
#        17826
#        33523
#        50216
#        60575
#        73062
#        89165
#        104520
#        122425
#        140213
#        156575
#        172018
#        192094
#        208488
#        227653
#        239516
#        252525
#        266357
#        280251
#        295433
#
# Disc length: 4124 seconds
#
# Revision: 0
# Processed by: cddbd v1.5.2PL0 Copyright (c) Steve Scherf et al.
# Submitted via: ExactAudioCopy v1.1
#
DISCID=4a101a14
DTITLE=Various Artist - JOE - Summer All The Way - CD 1
DYEAR=2018
DGENRE=Pop
TTITLE0=Justin Timberlake - Can't Stop The Feeling!
TTITLE1=Alvaro Soler - Sofia
TTITLE2=Los Del Rio - Macarena
TTITLE3=Lost Frequencies - Are You With Me
TTITLE4=George Baker Selection - Paloma Blanca
TTITLE5=Abba - Summer Night City
TTITLE6=Gusttavo Lima - Balada
TTITLE7=Mory Kante - Yé Ké Yé Ké
TTITLE8=Boney M - Sunny
TTITLE9=DNCE - Cake By The Ocean
TTITLE10=Bob Sinclar Presents Goleo VI Feat. Gary "Nesta" Pine - Love 
TTITLE10=Generation
TTITLE11=Wham! - Club Tropicana
TTITLE12=Bart Kaëll - Mooi Weer Vandaag
TTITLE13=Santana - Oye Como Va
TTITLE14=Sigala - Easy Love
TTITLE15=The Dinky Toys - I Can't Keep My Hands Off You
TTITLE16=Sophia George - Girlie Girlie
TTITLE17=Major Lazer Feat. Justin Bieber and Mø - Cold Water
TTITLE18=Jennifer Lopez - Ain't It Funny
TTITLE19=Will Tura - Mooi, 't Leven Is Mooi
EXTD=
EXTT0=
EXTT1=
EXTT2=
EXTT3=
EXTT4=
EXTT5=
EXTT6=
EXTT7=
EXTT8=
EXTT9=
EXTT10=
EXTT11=
EXTT12=
EXTT13=
EXTT14=
EXTT15=
EXTT16=
EXTT17=
EXTT18=
EXTT19=
PLAYORDER=
